<?xml version="1.0" encoding="UTF-8"?>
<!DOCTYPE svg PUBLIC "-//W3C//DTD SVG 1.1//EN" "http://www.w3.org/Graphics/SVG/1.1/DTD/svg11.dtd">
<!-- Creator: CorelDRAW 2021 (64 Bit) -->
<svg xmlns="http://www.w3.org/2000/svg" xml:space="preserve" width="43.5594mm" height="43.5594mm" version="1.1" style="shape-rendering:geometricPrecision; text-rendering:geometricPrecision; image-rendering:optimizeQuality; fill-rule:evenodd; clip-rule:evenodd"
viewBox="0 0 453.73 453.73"
 xmlns:xlink="http://www.w3.org/1999/xlink"
 xmlns:xodm="http://www.corel.com/coreldraw/odm/2003">
 <defs>
  <style type="text/css">
   <![CDATA[
    .fil0 {fill:#0841B3}
   ]]>
  </style>
 </defs>
 <g id="Camada_x0020_1">
  <metadata id="CorelCorpID_0Corel-Layer"/>
  <path class="fil0" d="M226.86 0c125.29,0 226.86,101.57 226.86,226.86 0,125.29 -101.57,226.86 -226.86,226.86 -125.29,0 -226.86,-101.57 -226.86,-226.86 0,-125.29 101.57,-226.86 226.86,-226.86zm2.11 208.59c-4.29,-1.02 -7.74,-4 -16.5,-4.01 -4.55,-0 -2.06,-1.12 -11.53,0.33 -9.84,1.51 -17.26,4.98 -23.42,9.85 -5.1,4.03 -11.38,10.74 -14.64,18.71 -14.88,36.32 16.37,75.56 58.22,65.55 4.57,-1.09 8.24,-2.4 12.11,-4.39 2.17,-1.11 3.47,-1.95 5.25,-3.17l4.88 -3.61c0.86,1.72 3.5,5.12 4.73,6.55 9.13,10.6 18.86,18.66 32.16,24.61 3.22,1.44 8.93,3.78 12.47,4.76 0.74,0.21 1.51,0.41 2.29,0.62 0.34,0.09 0.86,0.22 1.16,0.34l1.09 0.55c-11.6,1.04 -28.32,-0.25 -40.21,-0.97 -43.9,-2.65 -95.69,-14.05 -137.21,-27.68 -2.52,-0.83 -5.1,-1.76 -7.64,-2.61 -2.12,-0.71 -6.07,-2.57 -6.79,-2.47 -6.47,-1.3 -5.8,-2.05 -8.1,-6.84 -13.29,-27.64 -19.3,-54.43 -14.61,-86.01 2.55,-17.18 7.38,-30.72 14.45,-44.55 13.03,-25.49 34.66,-45.81 59.29,-59.06 38.47,-20.71 106.17,-23.54 141.5,3.84 -28.13,39.34 -49.06,66.62 -68.93,109.67zm18.54 15.13l12.66 -25.2c2.58,-3.22 1.78,-3.66 3.21,-5.57 2.88,-3.85 6.19,-10.07 8.79,-14.33 5.61,-9.19 12.37,-19.09 18.78,-27.74l17.99 -22.67c2.52,-3.19 5,-5.56 7.98,-9.61 2.76,-3.75 2.78,-6.28 3.64,-7.85 3.85,0.54 16.35,7.74 19.58,9.85 18.25,11.97 30.95,29.33 39.04,51.11 11.61,31.23 9.39,72.7 -4.84,100.66 -3.58,7.04 -7.18,13.2 -11.46,18.21l-7.27 7.75c-1.81,1.73 -3.14,1.28 -5.47,1.78 -19.89,4.28 -40.89,5.33 -59.21,-2.45 -15.32,-6.5 -25.15,-15.29 -33.28,-26.79 -1.46,-2.07 -1.96,-2.33 -1.17,-5.32 0.52,-2 0.93,-4.61 1.13,-6.65 0.79,-8.04 -1.09,-18.54 -4.49,-25.62 -0.74,-1.53 -1.7,-3.62 -2.49,-4.86l-3.12 -4.7zm-36.56 -15.1c8.95,2.34 14.95,4.37 22.13,9.89 44.75,34.39 0.63,94.09 -44.58,71.33 -15.61,-7.86 -24.19,-24.21 -22.84,-41.59 0.67,-8.75 5.97,-20.37 11.99,-25.28 1.27,-1.03 1.4,-1.62 2.81,-2.69 4.2,-3.18 7.98,-6.12 13.23,-8.03 3.23,-1.17 14.18,-4.44 17.25,-3.63zm-1.58 21.82c5.62,0.58 11.02,1.06 15.65,6.77 14.61,18 2.16,38.27 -18.04,37.58 -12.43,-0.42 -22.05,-10.55 -21.62,-23.6 0.39,-12.07 11.22,-22.07 24.02,-20.74zm95.14 -128.62c3.61,1.19 7.02,3.03 10.04,5.13 -0.29,7.1 -8.36,14.49 -13.65,20.9 -15.3,18.51 -30.36,39.83 -42.15,60.79 -2.72,4.82 -5.39,9.61 -8.11,14.62 -1.38,2.54 -2.64,4.93 -3.91,7.46 -1.24,2.47 -2.51,5.45 -3.93,7.74l-10.04 -7.97c-0.54,-0.57 0.34,-1.49 1.28,-3.3 0.61,-1.16 1.3,-2.37 1.92,-3.57l11.98 -22.08c5.87,-10.67 18.35,-31.64 25.97,-42.18 1.69,-2.33 3.02,-4.32 4.71,-6.65 6,-8.27 15.29,-21.54 22.28,-28.65 0.67,-0.69 2.48,-1.81 3.62,-2.23zm-203.3 194c36.75,10.38 123.78,43.15 250.33,29.44l0.2 0.8c0.14,0.07 0.27,0.15 0.4,0.25 -0.09,0.09 -0.18,0.16 -0.28,0.23l0.53 2.17c0.11,0.04 0.24,0.09 0.37,0.17l-0.3 0.11 0.59 2.4c0.12,0.01 0.21,0.02 0.27,0.05 -0.03,0.35 -0.05,0.6 -0.07,0.78l1.94 7.96c-6.73,2.45 -14.51,4.53 -23.04,6.27 -14.46,3.33 -32.49,5.86 -40.1,6.69 -23.97,2.63 -47.32,3.17 -71.49,1.92 -21.64,-1.13 -44.59,-4.03 -65.32,-8.54l-0.2 -0.04c-31.31,-5.07 -54.57,-12.62 -59.49,-21.71l5.67 -28.96zm259.31 8.67c-42.41,8.99 -79.51,3.52 -101.17,-23.19 -1.52,-2.07 -3.09,-4.43 -5.47,-7.74l-5.85 8.82 0 0 0 -0c-0.46,1.13 0.46,2.1 1.18,3.16l5.37 7.08c10.63,10.98 20.67,19.12 37.13,24.45 17.47,5.65 42.19,6.77 60.45,0.91 1.51,-0.49 2.41,-0.83 3.03,-1.15 1.62,-0.42 3.24,-0.86 4.86,-1.32l0.48 -11.02z"/>
 </g>
</svg>
