<?xml version="1.0" encoding="UTF-8"?>
<!DOCTYPE svg PUBLIC "-//W3C//DTD SVG 1.1//EN" "http://www.w3.org/Graphics/SVG/1.1/DTD/svg11.dtd">
<!-- Creator: CorelDRAW 2021 (64 Bit) -->
<svg xmlns="http://www.w3.org/2000/svg" xml:space="preserve" width="43.5594mm" height="43.5594mm" version="1.1" style="shape-rendering:geometricPrecision; text-rendering:geometricPrecision; image-rendering:optimizeQuality; fill-rule:evenodd; clip-rule:evenodd"
viewBox="0 0 283.65 283.65"
 xmlns:xlink="http://www.w3.org/1999/xlink"
 xmlns:xodm="http://www.corel.com/coreldraw/odm/2003">
 <defs>
  <style type="text/css">
   <![CDATA[
    .fil1 {fill:#0840B1}
    .fil0 {fill:white}
   ]]>
  </style>
 </defs>
 <g id="Camada_x0020_1">
  <metadata id="CorelCorpID_0Corel-Layer"/>
  <circle class="fil0" cx="141.83" cy="141.83" r="115.21"/>
  <path class="fil1" d="M141.83 0c78.33,0 141.83,63.5 141.83,141.83 0,78.33 -63.5,141.83 -141.83,141.83 -78.33,0 -141.83,-63.5 -141.83,-141.83 0,-78.33 63.5,-141.83 141.83,-141.83zm1.32 130.4c-2.68,-0.64 -4.84,-2.5 -10.32,-2.51 -2.85,-0 -1.29,-0.7 -7.21,0.2 -6.15,0.94 -10.79,3.11 -14.64,6.16 -3.19,2.52 -7.11,6.71 -9.16,11.7 -9.3,22.71 10.23,47.24 36.4,40.98 2.86,-0.68 5.15,-1.5 7.57,-2.74 1.35,-0.69 2.17,-1.22 3.28,-1.98l3.05 -2.25c0.54,1.07 2.19,3.2 2.96,4.1 5.71,6.63 11.79,11.66 20.1,15.38 2.02,0.9 5.58,2.36 7.79,2.97 0.46,0.13 0.94,0.25 1.43,0.39 0.21,0.06 0.54,0.14 0.73,0.21l0.68 0.34c-7.25,0.65 -17.71,-0.16 -25.14,-0.6 -27.44,-1.66 -59.82,-8.78 -85.78,-17.3 -1.58,-0.52 -3.19,-1.1 -4.78,-1.63 -1.33,-0.44 -3.79,-1.61 -4.25,-1.54 -4.05,-0.81 -3.62,-1.28 -5.06,-4.28 -8.31,-17.28 -12.07,-34.03 -9.13,-53.77 1.6,-10.74 4.61,-19.2 9.03,-27.85 8.15,-15.93 21.67,-28.64 37.07,-36.92 24.05,-12.95 66.37,-14.72 88.46,2.4 -17.58,24.6 -30.67,41.65 -43.09,68.56zm11.59 9.46l7.91 -15.75c1.61,-2.01 1.11,-2.29 2,-3.48 1.8,-2.4 3.87,-6.3 5.5,-8.96 3.51,-5.75 7.74,-11.93 11.74,-17.34l11.25 -14.17c1.58,-2 3.13,-3.48 4.99,-6.01 1.72,-2.34 1.74,-3.93 2.28,-4.91 2.41,0.33 10.22,4.84 12.24,6.16 11.41,7.48 19.35,18.34 24.41,31.95 7.26,19.52 5.87,45.45 -3.03,62.93 -2.24,4.4 -4.49,8.25 -7.17,11.39l-4.55 4.84c-1.13,1.08 -1.96,0.8 -3.42,1.11 -12.43,2.67 -25.56,3.33 -37.01,-1.53 -9.58,-4.07 -15.72,-9.56 -20.8,-16.75 -0.91,-1.29 -1.22,-1.45 -0.73,-3.33 0.33,-1.25 0.58,-2.88 0.71,-4.15 0.49,-5.03 -0.68,-11.59 -2.81,-16.02 -0.46,-0.96 -1.06,-2.27 -1.56,-3.04l-1.95 -2.94zm-22.86 -9.44c5.6,1.46 9.35,2.73 13.84,6.18 27.97,21.5 0.39,58.82 -27.87,44.6 -9.76,-4.91 -15.12,-15.13 -14.28,-26 0.42,-5.47 3.73,-12.74 7.5,-15.8 0.79,-0.65 0.87,-1.01 1.76,-1.68 2.63,-1.99 4.99,-3.83 8.27,-5.02 2.02,-0.73 8.86,-2.77 10.78,-2.27zm-0.99 13.64c3.52,0.36 6.89,0.66 9.78,4.23 9.13,11.26 1.35,23.93 -11.28,23.5 -7.77,-0.27 -13.78,-6.6 -13.52,-14.76 0.25,-7.55 7.01,-13.8 15.01,-12.97zm59.48 -80.41c2.25,0.74 4.39,1.89 6.27,3.21 -0.18,4.44 -5.22,9.06 -8.54,13.07 -9.57,11.57 -18.98,24.9 -26.35,38 -1.7,3.01 -3.37,6.01 -5.07,9.14 -0.86,1.59 -1.65,3.08 -2.45,4.66 -0.77,1.54 -1.57,3.41 -2.46,4.84l-6.27 -4.98c-0.34,-0.36 0.21,-0.93 0.8,-2.06 0.38,-0.73 0.81,-1.48 1.2,-2.23l7.49 -13.81c3.67,-6.67 11.47,-19.78 16.24,-26.37 1.05,-1.46 1.89,-2.7 2.94,-4.16 3.75,-5.17 9.56,-13.47 13.93,-17.91 0.42,-0.43 1.55,-1.13 2.26,-1.4zm-127.09 121.28c22.98,6.49 77.38,26.97 156.5,18.4l0.12 0.5c0.09,0.04 0.17,0.09 0.25,0.15 -0.06,0.05 -0.12,0.1 -0.18,0.14l0.33 1.36c0.07,0.03 0.15,0.06 0.23,0.1l-0.19 0.07 0.37 1.5c0.07,0 0.13,0.01 0.17,0.03 -0.02,0.22 -0.03,0.38 -0.04,0.49l1.22 4.98c-4.21,1.53 -9.07,2.83 -14.41,3.92 -9.04,2.08 -20.31,3.66 -25.07,4.19 -14.98,1.64 -29.58,1.98 -44.69,1.2 -13.53,-0.7 -27.88,-2.52 -40.83,-5.34l-0.13 -0.03c-19.57,-3.17 -34.12,-7.89 -37.19,-13.57l3.54 -18.1zm162.11 5.42c-26.51,5.62 -49.71,2.2 -63.25,-14.5 -0.95,-1.29 -1.93,-2.77 -3.42,-4.84l-3.66 5.52 0 0 0 -0c-0.29,0.71 0.29,1.31 0.74,1.98l3.36 4.43c6.64,6.86 12.92,11.95 23.21,15.28 10.92,3.53 26.38,4.23 37.79,0.57 0.95,-0.3 1.5,-0.52 1.89,-0.72 1.01,-0.26 2.02,-0.54 3.04,-0.83l0.3 -6.89z"/>
 </g>
</svg>
